<?xml version="1.0" encoding="utf-8" ?>
<svg xmlns="http://www.w3.org/2000/svg" xmlns:xlink="http://www.w3.org/1999/xlink" width="512" height="512">
	<path fill="#5AC237" transform="scale(0.8 0.8)" d="M460.057 430.434L460.329 430.189C465.141 425.762 467.938 420.209 474.638 418.192C482.677 421.415 497.558 438.29 504.229 444.886L542.032 482.682C551.328 492.221 561.541 501.094 570.37 511.043C605.928 551.111 550.454 604.996 512.855 571.928C507.988 567.647 503.522 562.756 498.966 558.145L423.257 481.094C415.344 472.325 419.433 470.449 427.622 462.256C429.2 460.678 430.756 458.943 432.44 457.486C434.232 456.568 435.894 454.554 437.294 453.115L460.057 430.434Z"/>
	<path fill="#00374F" transform="scale(0.8 0.8)" d="M432.44 457.486C423.81 450.218 415.763 442.215 407.68 434.351C407.105 433.792 407.335 433.575 406.657 434.119C374.302 460.043 332.472 476.715 290.88 479.283C180.701 486.087 86.6844 400.249 79.8271 289.54C73.2394 183.185 155.372 88.3964 262.715 79.6187C372.043 70.6785 470.59 155.158 479.068 265.335C482.474 309.599 470.249 357.699 443.735 393.613C440.572 397.897 437.583 402.086 433.726 405.789L460.057 430.434L437.294 453.115C435.894 454.554 434.232 456.568 432.44 457.486ZM255.532 116.004L248.756 117.909C241.443 114.276 193.199 134.82 189.605 140.351C154.149 164.759 128.689 200.835 119.375 242.876C118.553 246.588 118.004 250.438 116.964 254.091C115.422 259.742 113.732 296.957 116.753 301.286L116.837 301.539C117.877 304.873 118.026 308.879 118.664 312.354C126.194 353.388 154.919 396.003 190.508 418.675C202.274 429.177 227.828 437.395 242.672 440.212C244.569 440.572 246.828 441.504 248.717 441.422L249.758 441.312L255.713 442.719C260.148 444.373 294.512 445.628 298.167 442.462L300.434 441.735C311.917 444.342 353.847 429.872 365.429 420.13C370.141 416.601 375.218 413.623 379.844 409.937C411.117 385.017 432.435 351.583 440.748 312.58C441.502 309.042 441.816 305.242 442.927 301.81L443.086 301.531C445.439 295.081 444.44 257.167 441.798 254.119C440.903 250.928 440.598 247.534 439.996 244.277C431.856 200.203 404.14 167.743 369.816 141.405C362.838 132.004 327.835 121.106 316.654 118.75C314.304 118.255 310.73 116.976 308.487 118.042L298.076 115.52C291.818 113.77 262.621 113.235 255.532 116.004Z"/>
	<path fill="#007BEC" transform="scale(0.8 0.8)" d="M255.532 116.004C262.621 113.235 291.818 113.77 298.076 115.52L308.487 118.042C310.73 116.976 314.304 118.255 316.654 118.75C327.835 121.106 362.838 132.004 369.816 141.405C404.14 167.743 431.856 200.203 439.996 244.277C440.598 247.534 440.903 250.928 441.798 254.119C444.44 257.167 445.439 295.081 443.086 301.531L442.927 301.81C441.816 305.242 441.502 309.042 440.748 312.58C432.435 351.583 411.117 385.017 379.844 409.937C375.218 413.623 370.141 416.601 365.429 420.13C353.847 429.872 311.917 444.342 300.434 441.735L298.167 442.462C294.512 445.628 260.148 444.373 255.713 442.719L249.758 441.312L248.717 441.422C246.828 441.504 244.569 440.572 242.672 440.212C227.828 437.395 202.274 429.177 190.508 418.675C154.919 396.003 126.194 353.388 118.664 312.354C118.026 308.879 117.877 304.873 116.837 301.539L116.753 301.286C113.732 296.957 115.422 259.742 116.964 254.091C118.004 250.438 118.553 246.588 119.375 242.876C128.689 200.835 154.149 164.759 189.605 140.351C193.199 134.82 241.443 114.276 248.756 117.909L255.532 116.004ZM298.167 442.462L300.434 441.735C320.399 435.668 325.495 427.095 335.437 408.454C349.751 381.614 355.495 352.887 359.107 322.877L360.608 308.82C360.812 306.415 361.14 303.84 361.038 301.435L306.252 301.682L304.348 366.562L298.328 437.802C298.143 439.279 297.551 441.122 298.167 442.462ZM249.758 441.312L255.713 442.719C256.36 440.967 254.044 423.38 253.74 419.978L253.187 408.438C253.073 407.052 252.704 405.712 252.61 404.326L249.872 330.854C249.765 328.625 249.235 326.426 249.167 324.219L249.084 301.623C247.691 301.297 245.869 301.506 244.425 301.507L195.62 301.628C196.134 332.696 202.506 364.444 213.85 393.358C220.172 409.469 232.875 433.913 249.758 441.312ZM248.756 117.909C229.372 125.373 214.64 159.479 209.036 177.579C201.331 202.46 196.765 228.154 195.303 254.162L248.743 254.2C249.446 253.281 248.983 230.898 249.3 227.344L255.532 116.004L248.756 117.909ZM365.429 420.13C370.141 416.601 375.218 413.623 379.844 409.937C411.117 385.017 432.435 351.583 440.748 312.58C441.502 309.042 441.816 305.242 442.927 301.81L443.021 301.543L400.9 301.625C399.571 337.705 390.143 390.836 365.747 419.381C365.464 419.711 365.558 419.619 365.429 420.13ZM369.816 141.405C370.221 143.757 373.075 146.898 374.395 148.969C388.178 170.589 395.955 209.291 398.402 234.624L399.546 250.508C399.57 251.393 399.382 253.129 399.806 253.882L437.912 254.322C439.155 254.338 440.616 254.553 441.798 254.119C440.903 250.928 440.598 247.534 439.996 244.277C431.856 200.203 404.14 167.743 369.816 141.405ZM116.753 301.286L116.837 301.539C117.877 304.873 118.026 308.879 118.664 312.354C126.194 353.388 154.919 396.003 190.508 418.675C190.383 417.985 189.741 417.524 189.277 417.002L185.555 412.604C165.988 387.801 156.296 331.914 155.601 301.618L116.753 301.286ZM116.964 254.139C120.318 254.752 124.509 254.247 127.97 254.247L155.578 254.198C156.634 221.759 167.561 172.474 185.035 146.602L189.605 140.351C154.149 164.759 128.689 200.835 119.375 242.876C118.553 246.588 118.004 250.438 116.964 254.139Z"/>
	<path fill="white" transform="scale(0.8 0.8)" d="M308.487 118.042C315.535 119.937 320.317 125.738 324.705 131.247C343.607 154.978 352.538 189.452 356.893 219.381L359.659 242.525C360.004 246.277 359.926 250.263 360.57 253.95L305.764 254.188C305.37 251.201 305.632 247.853 305.62 244.822L305.467 222.998L301.638 149.752C301.178 141.295 300 132.743 298.96 124.322L298.254 119.197C298.041 117.969 297.541 116.881 298.076 115.681L308.487 118.042Z"/>
</svg>
